<mxfile host="app.diagrams.net" modified="2021-12-08T18:53:58.444Z" agent="5.0 (Windows NT 10.0; Win64; x64) AppleWebKit/537.36 (KHTML, like Gecko) Chrome/96.0.4664.45 Safari/537.36" etag="EPq3Q7lFx9qsDXcerJNH" version="15.9.4" type="github">
  <diagram id="r93RH7nyAxZgDoi5zeDg" name="Page-1">
    <mxGraphModel dx="2480" dy="1406" grid="1" gridSize="10" guides="1" tooltips="1" connect="1" arrows="1" fold="1" page="1" pageScale="1" pageWidth="850" pageHeight="1100" math="0" shadow="0">
      <root>
        <mxCell id="0" />
        <mxCell id="1" parent="0" />
        <mxCell id="kromDqBgSjqV4zFJN7u7-3" value="" style="edgeStyle=orthogonalEdgeStyle;rounded=0;orthogonalLoop=1;jettySize=auto;html=1;" edge="1" parent="1" source="kromDqBgSjqV4zFJN7u7-1" target="kromDqBgSjqV4zFJN7u7-2">
          <mxGeometry relative="1" as="geometry" />
        </mxCell>
        <mxCell id="kromDqBgSjqV4zFJN7u7-1" value="Order Create" style="rounded=0;whiteSpace=wrap;html=1;" vertex="1" parent="1">
          <mxGeometry x="415" y="25" width="120" height="60" as="geometry" />
        </mxCell>
        <mxCell id="kromDqBgSjqV4zFJN7u7-10" value="" style="edgeStyle=orthogonalEdgeStyle;rounded=0;orthogonalLoop=1;jettySize=auto;html=1;" edge="1" parent="1" source="kromDqBgSjqV4zFJN7u7-2" target="kromDqBgSjqV4zFJN7u7-9">
          <mxGeometry relative="1" as="geometry" />
        </mxCell>
        <mxCell id="kromDqBgSjqV4zFJN7u7-2" value="Verification" style="rounded=0;whiteSpace=wrap;html=1;" vertex="1" parent="1">
          <mxGeometry x="415" y="105" width="120" height="60" as="geometry" />
        </mxCell>
        <mxCell id="kromDqBgSjqV4zFJN7u7-20" value="" style="edgeStyle=orthogonalEdgeStyle;rounded=0;orthogonalLoop=1;jettySize=auto;html=1;" edge="1" parent="1" source="kromDqBgSjqV4zFJN7u7-4" target="kromDqBgSjqV4zFJN7u7-19">
          <mxGeometry relative="1" as="geometry" />
        </mxCell>
        <mxCell id="kromDqBgSjqV4zFJN7u7-4" value="Processing" style="rounded=0;whiteSpace=wrap;html=1;" vertex="1" parent="1">
          <mxGeometry x="415" y="295" width="120" height="60" as="geometry" />
        </mxCell>
        <mxCell id="kromDqBgSjqV4zFJN7u7-6" value="Cancelled" style="rounded=0;whiteSpace=wrap;html=1;" vertex="1" parent="1">
          <mxGeometry x="670" y="200" width="120" height="60" as="geometry" />
        </mxCell>
        <mxCell id="kromDqBgSjqV4zFJN7u7-13" value="" style="edgeStyle=orthogonalEdgeStyle;rounded=0;orthogonalLoop=1;jettySize=auto;html=1;" edge="1" parent="1" source="kromDqBgSjqV4zFJN7u7-7" target="kromDqBgSjqV4zFJN7u7-12">
          <mxGeometry relative="1" as="geometry" />
        </mxCell>
        <mxCell id="kromDqBgSjqV4zFJN7u7-7" value="On Hold" style="rounded=0;whiteSpace=wrap;html=1;" vertex="1" parent="1">
          <mxGeometry x="170" y="200" width="120" height="60" as="geometry" />
        </mxCell>
        <mxCell id="kromDqBgSjqV4zFJN7u7-11" value="" style="edgeStyle=orthogonalEdgeStyle;rounded=0;orthogonalLoop=1;jettySize=auto;html=1;" edge="1" parent="1" source="kromDqBgSjqV4zFJN7u7-9" target="kromDqBgSjqV4zFJN7u7-7">
          <mxGeometry relative="1" as="geometry" />
        </mxCell>
        <mxCell id="kromDqBgSjqV4zFJN7u7-15" value="" style="edgeStyle=orthogonalEdgeStyle;rounded=0;orthogonalLoop=1;jettySize=auto;html=1;" edge="1" parent="1" source="kromDqBgSjqV4zFJN7u7-9" target="kromDqBgSjqV4zFJN7u7-4">
          <mxGeometry relative="1" as="geometry" />
        </mxCell>
        <mxCell id="kromDqBgSjqV4zFJN7u7-16" value="" style="edgeStyle=orthogonalEdgeStyle;rounded=0;orthogonalLoop=1;jettySize=auto;html=1;" edge="1" parent="1" source="kromDqBgSjqV4zFJN7u7-9" target="kromDqBgSjqV4zFJN7u7-6">
          <mxGeometry relative="1" as="geometry" />
        </mxCell>
        <mxCell id="kromDqBgSjqV4zFJN7u7-9" value="&lt;font style=&quot;font-size: 24px&quot;&gt;IF&lt;/font&gt;" style="rhombus;whiteSpace=wrap;html=1;rounded=0;" vertex="1" parent="1">
          <mxGeometry x="423" y="185" width="105" height="90" as="geometry" />
        </mxCell>
        <mxCell id="kromDqBgSjqV4zFJN7u7-14" value="" style="edgeStyle=orthogonalEdgeStyle;rounded=0;orthogonalLoop=1;jettySize=auto;html=1;" edge="1" parent="1" source="kromDqBgSjqV4zFJN7u7-12" target="kromDqBgSjqV4zFJN7u7-4">
          <mxGeometry relative="1" as="geometry" />
        </mxCell>
        <mxCell id="kromDqBgSjqV4zFJN7u7-18" value="" style="edgeStyle=orthogonalEdgeStyle;rounded=0;orthogonalLoop=1;jettySize=auto;html=1;" edge="1" parent="1" source="kromDqBgSjqV4zFJN7u7-12" target="kromDqBgSjqV4zFJN7u7-17">
          <mxGeometry relative="1" as="geometry" />
        </mxCell>
        <mxCell id="kromDqBgSjqV4zFJN7u7-12" value="&lt;span style=&quot;font-size: 24px&quot;&gt;IF&lt;/span&gt;" style="rhombus;whiteSpace=wrap;html=1;rounded=0;" vertex="1" parent="1">
          <mxGeometry x="190" y="285" width="80" height="80" as="geometry" />
        </mxCell>
        <mxCell id="kromDqBgSjqV4zFJN7u7-17" value="Cancelled" style="whiteSpace=wrap;html=1;rounded=0;" vertex="1" parent="1">
          <mxGeometry x="170" y="405" width="120" height="60" as="geometry" />
        </mxCell>
        <mxCell id="kromDqBgSjqV4zFJN7u7-21" style="edgeStyle=orthogonalEdgeStyle;rounded=0;orthogonalLoop=1;jettySize=auto;html=1;entryX=1;entryY=0.5;entryDx=0;entryDy=0;" edge="1" parent="1" source="kromDqBgSjqV4zFJN7u7-19" target="kromDqBgSjqV4zFJN7u7-17">
          <mxGeometry relative="1" as="geometry" />
        </mxCell>
        <mxCell id="kromDqBgSjqV4zFJN7u7-23" value="" style="edgeStyle=orthogonalEdgeStyle;rounded=0;orthogonalLoop=1;jettySize=auto;html=1;" edge="1" parent="1" source="kromDqBgSjqV4zFJN7u7-19" target="kromDqBgSjqV4zFJN7u7-22">
          <mxGeometry relative="1" as="geometry" />
        </mxCell>
        <mxCell id="kromDqBgSjqV4zFJN7u7-19" value="&lt;span style=&quot;font-size: 24px&quot;&gt;IF&lt;/span&gt;" style="rhombus;whiteSpace=wrap;html=1;rounded=0;" vertex="1" parent="1">
          <mxGeometry x="435" y="395" width="80" height="80" as="geometry" />
        </mxCell>
        <mxCell id="kromDqBgSjqV4zFJN7u7-25" value="" style="edgeStyle=orthogonalEdgeStyle;rounded=0;orthogonalLoop=1;jettySize=auto;html=1;" edge="1" parent="1" source="kromDqBgSjqV4zFJN7u7-22" target="kromDqBgSjqV4zFJN7u7-24">
          <mxGeometry relative="1" as="geometry" />
        </mxCell>
        <mxCell id="kromDqBgSjqV4zFJN7u7-22" value="Dispatch" style="whiteSpace=wrap;html=1;rounded=0;" vertex="1" parent="1">
          <mxGeometry x="415.5" y="515" width="120" height="60" as="geometry" />
        </mxCell>
        <mxCell id="kromDqBgSjqV4zFJN7u7-27" value="" style="edgeStyle=orthogonalEdgeStyle;rounded=0;orthogonalLoop=1;jettySize=auto;html=1;" edge="1" parent="1" source="kromDqBgSjqV4zFJN7u7-24" target="kromDqBgSjqV4zFJN7u7-26">
          <mxGeometry relative="1" as="geometry" />
        </mxCell>
        <mxCell id="kromDqBgSjqV4zFJN7u7-29" value="" style="edgeStyle=orthogonalEdgeStyle;rounded=0;orthogonalLoop=1;jettySize=auto;html=1;" edge="1" parent="1" source="kromDqBgSjqV4zFJN7u7-24" target="kromDqBgSjqV4zFJN7u7-28">
          <mxGeometry relative="1" as="geometry" />
        </mxCell>
        <mxCell id="kromDqBgSjqV4zFJN7u7-31" value="" style="edgeStyle=orthogonalEdgeStyle;rounded=0;orthogonalLoop=1;jettySize=auto;html=1;" edge="1" parent="1" source="kromDqBgSjqV4zFJN7u7-24" target="kromDqBgSjqV4zFJN7u7-30">
          <mxGeometry relative="1" as="geometry" />
        </mxCell>
        <mxCell id="kromDqBgSjqV4zFJN7u7-24" value="&lt;span style=&quot;font-size: 24px&quot;&gt;IF&lt;/span&gt;" style="rhombus;whiteSpace=wrap;html=1;rounded=0;" vertex="1" parent="1">
          <mxGeometry x="435" y="605" width="80" height="80" as="geometry" />
        </mxCell>
        <mxCell id="kromDqBgSjqV4zFJN7u7-38" value="" style="edgeStyle=orthogonalEdgeStyle;rounded=0;orthogonalLoop=1;jettySize=auto;html=1;" edge="1" parent="1" source="kromDqBgSjqV4zFJN7u7-26" target="kromDqBgSjqV4zFJN7u7-37">
          <mxGeometry relative="1" as="geometry" />
        </mxCell>
        <mxCell id="kromDqBgSjqV4zFJN7u7-26" value="Cancelling" style="whiteSpace=wrap;html=1;rounded=0;" vertex="1" parent="1">
          <mxGeometry x="180" y="615" width="120" height="60" as="geometry" />
        </mxCell>
        <mxCell id="kromDqBgSjqV4zFJN7u7-34" value="" style="edgeStyle=orthogonalEdgeStyle;rounded=0;orthogonalLoop=1;jettySize=auto;html=1;" edge="1" parent="1" source="kromDqBgSjqV4zFJN7u7-28" target="kromDqBgSjqV4zFJN7u7-33">
          <mxGeometry relative="1" as="geometry" />
        </mxCell>
        <mxCell id="kromDqBgSjqV4zFJN7u7-28" value="Completed" style="whiteSpace=wrap;html=1;rounded=0;" vertex="1" parent="1">
          <mxGeometry x="515" y="775" width="120" height="60" as="geometry" />
        </mxCell>
        <mxCell id="kromDqBgSjqV4zFJN7u7-32" style="edgeStyle=orthogonalEdgeStyle;rounded=0;orthogonalLoop=1;jettySize=auto;html=1;entryX=0.808;entryY=-0.017;entryDx=0;entryDy=0;entryPerimeter=0;" edge="1" parent="1" source="kromDqBgSjqV4zFJN7u7-30" target="kromDqBgSjqV4zFJN7u7-28">
          <mxGeometry relative="1" as="geometry">
            <mxPoint x="670" y="715" as="targetPoint" />
          </mxGeometry>
        </mxCell>
        <mxCell id="kromDqBgSjqV4zFJN7u7-30" value="Pending Payment" style="whiteSpace=wrap;html=1;rounded=0;" vertex="1" parent="1">
          <mxGeometry x="610" y="615" width="120" height="60" as="geometry" />
        </mxCell>
        <mxCell id="kromDqBgSjqV4zFJN7u7-36" value="" style="edgeStyle=orthogonalEdgeStyle;rounded=0;orthogonalLoop=1;jettySize=auto;html=1;" edge="1" parent="1" source="kromDqBgSjqV4zFJN7u7-33" target="kromDqBgSjqV4zFJN7u7-35">
          <mxGeometry relative="1" as="geometry" />
        </mxCell>
        <mxCell id="kromDqBgSjqV4zFJN7u7-33" value="&lt;span style=&quot;font-size: 24px&quot;&gt;IF&lt;/span&gt;" style="rhombus;whiteSpace=wrap;html=1;rounded=0;" vertex="1" parent="1">
          <mxGeometry x="535" y="905" width="80" height="80" as="geometry" />
        </mxCell>
        <mxCell id="kromDqBgSjqV4zFJN7u7-35" value="Refunded" style="whiteSpace=wrap;html=1;rounded=0;" vertex="1" parent="1">
          <mxGeometry x="515" y="1015" width="120" height="60" as="geometry" />
        </mxCell>
        <mxCell id="kromDqBgSjqV4zFJN7u7-39" style="edgeStyle=orthogonalEdgeStyle;rounded=0;orthogonalLoop=1;jettySize=auto;html=1;entryX=0;entryY=0.25;entryDx=0;entryDy=0;" edge="1" parent="1" source="kromDqBgSjqV4zFJN7u7-37" target="kromDqBgSjqV4zFJN7u7-35">
          <mxGeometry relative="1" as="geometry" />
        </mxCell>
        <mxCell id="kromDqBgSjqV4zFJN7u7-41" value="" style="edgeStyle=orthogonalEdgeStyle;rounded=0;orthogonalLoop=1;jettySize=auto;html=1;" edge="1" parent="1" source="kromDqBgSjqV4zFJN7u7-37" target="kromDqBgSjqV4zFJN7u7-40">
          <mxGeometry relative="1" as="geometry" />
        </mxCell>
        <mxCell id="kromDqBgSjqV4zFJN7u7-43" value="" style="edgeStyle=orthogonalEdgeStyle;rounded=0;orthogonalLoop=1;jettySize=auto;html=1;" edge="1" parent="1" source="kromDqBgSjqV4zFJN7u7-37" target="kromDqBgSjqV4zFJN7u7-42">
          <mxGeometry relative="1" as="geometry" />
        </mxCell>
        <mxCell id="kromDqBgSjqV4zFJN7u7-37" value="&lt;span style=&quot;font-size: 24px&quot;&gt;IF&lt;/span&gt;" style="rhombus;whiteSpace=wrap;html=1;rounded=0;" vertex="1" parent="1">
          <mxGeometry x="200" y="745" width="80" height="80" as="geometry" />
        </mxCell>
        <mxCell id="kromDqBgSjqV4zFJN7u7-40" value="Cancelled" style="whiteSpace=wrap;html=1;rounded=0;" vertex="1" parent="1">
          <mxGeometry x="180" y="915" width="120" height="60" as="geometry" />
        </mxCell>
        <mxCell id="kromDqBgSjqV4zFJN7u7-42" value="Misplaced" style="whiteSpace=wrap;html=1;rounded=0;" vertex="1" parent="1">
          <mxGeometry x="30" y="755" width="120" height="60" as="geometry" />
        </mxCell>
      </root>
    </mxGraphModel>
  </diagram>
</mxfile>
